# xmcd CD database file generated by OrangeCD 6.2
#
# Track frame offsets:
#	183
#	19753
#	38965
#	60748
#	81288
#	106270
#	133888
#	157558
#	184083
#	205170
#	219728
#	246225
#
# Disc length: 3745 seconds
#
# Revision: 2
# Processed by: cddbd v1.5.2PL0 Copyright (c) Steve Scherf et al.
# Submitted via: OrangeCD 6.2
#
DISCID=a30e9f0c
DTITLE=Carey and Lurrie Bell - Father And Son
DYEAR=1996
DGENRE=Blues
TTITLE0=What My Mama Told Me
TTITLE1=I'll Be Your .44
TTITLE2=Blues With A Feeling
TTITLE3=Teenie Weenie Bit
TTITLE4=Smokin' Dynamite
TTITLE5=The Gladys Shuffle
TTITLE6=Last Night
TTITLE7=Cadillac Assembly Line
TTITLE8=85%
TTITLE9=I Need You So Bad
TTITLE10=Sail On
TTITLE11=Second Hand Man
EXTD=
EXTT0=
EXTT1=
EXTT2=
EXTT3=
EXTT4=
EXTT5=
EXTT6=
EXTT7=
EXTT8=
EXTT9=
EXTT10=
EXTT11=
PLAYORDER=
